<svg width="15" height="15" viewBox="0 0 15 15" fill="none" xmlns="http://www.w3.org/2000/svg">
<g clip-path="url(#clip0_63_139)">
<path d="M11.875 4.99982L9.375 7.49982H11.25C11.25 9.56857 9.56875 11.2498 7.5 11.2498C6.86875 11.2498 6.26875 11.0936 5.75 10.8123L4.8375 11.7248C5.60625 12.2123 6.51875 12.4998 7.5 12.4998C10.2625 12.4998 12.5 10.2623 12.5 7.49982H14.375L11.875 4.99982ZM3.75 7.49982C3.75 5.43107 5.43125 3.74982 7.5 3.74982C8.13125 3.74982 8.73125 3.90607 9.25 4.18732L10.1625 3.27482C9.39375 2.78732 8.48125 2.49982 7.5 2.49982C4.7375 2.49982 2.5 4.73732 2.5 7.49982H0.625L3.125 9.99982L5.625 7.49982H3.75Z" fill="#C1C1C1"/>
</g>
<defs>
<clipPath id="clip0_63_139">
<rect width="15" height="15" fill="white"/>
</clipPath>
</defs>
</svg>
