<svg xmlns="http://www.w3.org/2000/svg" width="88.796" height="62.321" viewBox="0 0 88.796 62.321"><defs><style>.a{fill:#dad800;}.b{fill:#00a1ed;}</style></defs><g transform="translate(-2296.948 -591.057)"><path class="a" d="M2356.032,670.057a2.537,2.537,0,0,1,.753-1.868,2.5,2.5,0,0,1,1.838-.753h7.742a2.488,2.488,0,0,1,1.853.753,2.529,2.529,0,0,1,.738,1.838,2.579,2.579,0,0,1-.738,1.853,2.462,2.462,0,0,1-1.853.768h-5.121v3.4h5.121a2.488,2.488,0,0,1,1.853.753,2.528,2.528,0,0,1,.738,1.838,2.564,2.564,0,0,1-.738,1.868,2.486,2.486,0,0,1-1.853.753h-5.121v6.417a2.487,2.487,0,0,1-.753,1.853,2.525,2.525,0,0,1-1.837.738,2.576,2.576,0,0,1-1.853-.738,2.462,2.462,0,0,1-.768-1.853Z" transform="translate(-49.809 -64.39)"/><path class="a" d="M2555.626,712.322a2.684,2.684,0,0,1,.723-2.094,2.567,2.567,0,0,1,1.778-.648,2.121,2.121,0,0,1,1.566.6,4.831,4.831,0,0,1,1.341-.467,7.276,7.276,0,0,1,1.371-.136,2.333,2.333,0,0,1,.934.2,2.569,2.569,0,0,1,.8.542,2.629,2.629,0,0,1,.542.783,2.307,2.307,0,0,1-.542,2.621,2.827,2.827,0,0,1-1.672.768,2.51,2.51,0,0,0-1.31.542,1.626,1.626,0,0,0-.618,1.175v5.9a2.985,2.985,0,0,1-.708,2.169,2.263,2.263,0,0,1-1.672.723,2.52,2.52,0,0,1-1.792-.633,3.141,3.141,0,0,1-.739-2.229Z" transform="translate(-218.073 -99.918)"/><path class="a" d="M2456.5,710.665a2.035,2.035,0,0,0-1.717-.994h-.241a2.249,2.249,0,0,0-1.777.753,7.914,7.914,0,0,0-3.585-.844,7.351,7.351,0,0,0-3,.617,7.923,7.923,0,0,0-4.127,4.142,7.658,7.658,0,0,0,0,6.025,7.921,7.921,0,0,0,4.127,4.142,7.351,7.351,0,0,0,3,.617,9.016,9.016,0,0,0,1.883-.2,6.358,6.358,0,0,0,1.7-.618,2.293,2.293,0,0,0,1.777.723h.181a2.057,2.057,0,0,0,1.009-.241,1.992,1.992,0,0,0,.708-.648,3.04,3.04,0,0,0,.407-.919,4.115,4.115,0,0,0,.135-1.054v-9.61A3.869,3.869,0,0,0,2456.5,710.665Zm-7.271,10.853h0a4.078,4.078,0,0,1-1.982-.513l-2.612,1.781,1.334-2.882a4.108,4.108,0,0,1,3.26-6.615h0a4.114,4.114,0,0,1,0,8.229Z" transform="translate(-121.807 -99.918)"/><path class="b" d="M2719.434,717.322a7.611,7.611,0,0,1,.6-3.012,7.722,7.722,0,0,1,7.17-4.73,7.618,7.618,0,0,1,3.013.6,7.692,7.692,0,0,1,4.127,4.127,7.911,7.911,0,0,1,0,6.055,7.931,7.931,0,0,1-1.657,2.486,7.75,7.75,0,0,1-11,0,7.91,7.91,0,0,1-1.657-2.486A7.686,7.686,0,0,1,2719.434,717.322Zm4.941,0a2.79,2.79,0,0,0,.813,2.034,2.714,2.714,0,0,0,2.019.828,2.767,2.767,0,0,0,1.1-.226,2.843,2.843,0,0,0,1.732-2.636,2.765,2.765,0,0,0-.226-1.1,2.772,2.772,0,0,0-1.506-1.506,2.77,2.77,0,0,0-1.1-.226,2.716,2.716,0,0,0-2.019.828A2.755,2.755,0,0,0,2724.375,717.322Z" transform="translate(-356.167 -99.918)"/><path class="b" d="M2630.562,710.469a2.318,2.318,0,0,0-1.777-.8,2.416,2.416,0,0,0-1.778.723,8.612,8.612,0,0,0-1.672-.587,7.992,7.992,0,0,0-1.913-.226,7.613,7.613,0,0,0-3.013.6,7.745,7.745,0,0,0-2.47,1.657,7.948,7.948,0,0,0-1.672,2.47,7.658,7.658,0,0,0,0,6.025,7.881,7.881,0,0,0,4.142,4.142,7.458,7.458,0,0,0,3.013.618,7.7,7.7,0,0,0,2.651-.449,4.915,4.915,0,0,1-.5.873,5.522,5.522,0,0,1-.693.813,3.288,3.288,0,0,1-.844.587,2.231,2.231,0,0,1-.979.225,2.954,2.954,0,0,1-1.311-.3,6.8,6.8,0,0,1-1.1-.663,4.156,4.156,0,0,0-.8-.467,2.025,2.025,0,0,0-.829-.2,2.237,2.237,0,0,0-2.259,2.229,2.414,2.414,0,0,0,.226,1.009,2.783,2.783,0,0,0,.557.828,7.965,7.965,0,0,0,2.455,1.521,7.875,7.875,0,0,0,2.937.557,8.19,8.19,0,0,0,3.4-.693,7.8,7.8,0,0,0,2.621-1.9,8.53,8.53,0,0,0,1.672-2.817,10,10,0,0,0,.587-3.449V712.532A3.052,3.052,0,0,0,2630.562,710.469Zm-4.622,10.068a4.089,4.089,0,0,1-2.5.854h0a4.126,4.126,0,0,1-4.115-4.114h0a4.126,4.126,0,0,1,4.115-4.115h0a4.127,4.127,0,0,1,4.114,4.115h0a4.079,4.079,0,0,1-.513,1.982l1.781,2.613Z" transform="translate(-268.674 -99.918)"/><path class="a" d="M2366.2,653.378a2.588,2.588,0,0,1-1.832-.759l-11.9-11.9h-45.7a9.835,9.835,0,0,1-9.823-9.823V600.881a9.835,9.835,0,0,1,9.823-9.824h69.149a9.835,9.835,0,0,1,9.824,9.824v30.013a9.835,9.835,0,0,1-9.824,9.823h-7.127v10.071a2.59,2.59,0,0,1-2.589,2.59Zm-59.433-57.141a4.649,4.649,0,0,0-4.643,4.643v30.013a4.649,4.649,0,0,0,4.643,4.643h46.771a2.59,2.59,0,0,1,1.832.759l8.24,8.24v-6.408a2.59,2.59,0,0,1,2.59-2.59h9.717a4.649,4.649,0,0,0,4.644-4.643V600.881a4.649,4.649,0,0,0-4.644-4.643Z"/></g></svg>