<?xml version="1.0" standalone="no"?>
<!DOCTYPE svg PUBLIC "-//W3C//DTD SVG 20010904//EN"
 "http://www.w3.org/TR/2001/REC-SVG-20010904/DTD/svg10.dtd">
<svg version="1.0" xmlns="http://www.w3.org/2000/svg"
 width="88.796" height="62.321" viewBox="0 0 1887.000000 544.000000"
 preserveAspectRatio="xMidYMid meet">

<g transform="translate(0.000000,544.000000) scale(0.100000,-0.100000)"
fill="#000000" stroke="none">
<path d="M3360 4941 c-125 -27 -200 -120 -237 -298 -14 -70 -16 -190 -14
-1123 3 -1109 5 -1165 51 -1345 47 -181 121 -315 240 -436 151 -153 325 -228
600 -260 134 -15 551 -6 709 16 289 40 533 120 742 243 240 142 373 335 438
637 30 134 44 367 38 600 -6 244 -18 296 -86 366 -56 58 -105 73 -216 67 -134
-7 -214 -65 -252 -185 -12 -36 -17 -119 -23 -343 -8 -327 -14 -363 -86 -501
-130 -248 -440 -392 -849 -393 -168 -1 -230 11 -350 68 -163 77 -262 215 -311
432 -17 73 -18 156 -19 1104 0 1112 2 1074 -56 1197 -32 67 -71 106 -134 134
-48 21 -136 30 -185 20z"/>
<path d="M6830 4941 c-125 -27 -200 -120 -237 -298 -14 -70 -16 -190 -14
-1123 3 -1109 5 -1165 51 -1345 47 -181 121 -315 240 -436 146 -148 303 -219
560 -254 86 -12 311 -15 1241 -15 684 0 1187 4 1265 10 462 37 793 175 943
393 138 201 208 566 151 777 -81 292 -319 562 -678 764 -147 83 -835 398
-1107 506 -422 168 -684 221 -807 162 -91 -45 -170 -166 -170 -262 0 -59 40
-138 92 -182 32 -27 179 -103 345 -178 l70 -32 -120 -47 c-193 -76 -322 -146
-385 -211 -146 -149 -238 -434 -227 -705 4 -127 35 -232 112 -384 25 -50 45
-93 45 -97 0 -3 -107 -4 -237 -1 -262 4 -302 11 -428 71 -163 77 -262 215
-311 432 -17 73 -18 156 -19 1104 0 1112 2 1074 -56 1197 -32 67 -71 106 -134
134 -48 21 -136 30 -185 20z m3015 -1923 c351 -160 578 -326 651 -473 24 -51
29 -72 29 -135 -1 -93 -27 -153 -100 -225 -113 -113 -348 -191 -635 -212 l-95
-6 18 24 c131 186 197 348 197 491 0 111 -66 289 -189 507 -28 50 -51 93 -51
97 0 9 38 -6 175 -68z m-715 -4 c78 -37 136 -93 177 -171 45 -83 63 -161 70
-296 14 -282 -60 -454 -232 -534 -52 -24 -75 -28 -173 -31 -170 -6 -275 21
-361 94 -111 93 -166 293 -143 517 26 243 117 385 281 438 45 15 82 18 186 16
122 -2 134 -4 195 -33z"/>
<path d="M16205 4479 c-16 -5 -58 -6 -93 -3 -85 9 -172 -17 -242 -71 -62 -47
-79 -89 -82 -203 -1 -69 -3 -74 -26 -83 -14 -6 -46 -9 -71 -8 -25 1 -64 -2
-86 -6 -43 -8 -105 -41 -105 -55 0 -5 -9 -18 -20 -28 -11 -10 -29 -44 -40 -76
-19 -56 -19 -63 -5 -152 18 -108 29 -138 61 -159 12 -8 45 -50 72 -94 55 -90
87 -120 153 -145 43 -16 49 -17 77 -2 23 12 33 13 38 4 4 -6 2 -14 -4 -16 -7
-2 -10 -8 -6 -13 3 -5 0 -9 -6 -9 -6 0 -8 -4 -5 -10 3 -5 1 -10 -5 -10 -6 0
-8 -4 -5 -10 3 -5 1 -10 -5 -10 -7 0 -9 -7 -6 -16 4 -10 2 -13 -6 -8 -8 5 -9
2 -5 -9 3 -9 3 -18 -1 -21 -4 -3 -9 -21 -10 -41 -2 -26 5 -47 28 -80 16 -24
30 -49 30 -57 0 -32 57 -154 89 -189 32 -36 46 -43 136 -66 78 -19 116 -24
170 -20 85 6 307 67 343 94 41 30 54 64 41 103 -10 28 -9 34 11 53 l22 22 16
-25 c32 -48 75 -79 124 -90 64 -13 137 -13 179 2 52 18 116 77 134 122 9 23
27 52 39 66 52 58 126 223 126 283 0 38 -24 84 -70 132 -29 31 -39 51 -45 89
-9 64 -47 101 -126 123 -33 9 -59 20 -59 24 0 5 9 16 19 26 47 43 74 97 73
143 -1 61 -36 154 -78 209 -19 24 -34 48 -34 52 0 10 -101 79 -159 109 -60 30
-120 24 -217 -24 -41 -21 -77 -36 -78 -34 -1 1 -8 23 -15 48 -19 65 -81 121
-152 138 -62 14 -72 14 -114 1z m-108 -25 c-3 -3 -12 -4 -19 -1 -8 3 -5 6 6 6
11 1 17 -2 13 -5z m-113 -29 c-4 -8 -8 -15 -10 -15 -2 0 -4 7 -4 15 0 8 4 15
10 15 5 0 7 -7 4 -15z m91 -35 c10 -11 16 -20 13 -20 -3 0 -13 9 -23 20 -10
11 -16 20 -13 20 3 0 13 -9 23 -20z m-25 -25 c13 -14 21 -25 18 -25 -2 0 -15
11 -28 25 -13 14 -21 25 -18 25 2 0 15 -11 28 -25z m630 -75 c0 -5 -7 -7 -15
-3 -10 3 -15 1 -13 -7 2 -7 -5 -14 -14 -15 -10 -2 -18 1 -18 5 0 11 30 29 48
30 6 0 12 -4 12 -10z m-100 -24 c0 -2 -8 -10 -17 -17 -16 -13 -17 -12 -4 4 13
16 21 21 21 13z m123 -13 c-7 -2 -19 -2 -25 0 -7 3 -2 5 12 5 14 0 19 -2 13
-5z m117 -7 c-1 -5 4 -13 12 -17 9 -6 7 -9 -9 -9 -23 0 -33 -20 -10 -20 9 0 8
-3 -2 -9 -7 -5 -11 -13 -7 -19 3 -6 2 -13 -4 -17 -6 -4 -8 -11 -4 -16 3 -5 2
-9 -3 -8 -20 4 -31 -2 -36 -20 -4 -17 -2 -18 20 -10 14 5 28 7 32 4 5 -2 17 2
27 10 12 9 14 14 6 15 -8 0 -10 5 -6 12 5 8 2 9 -10 5 -14 -6 -15 -3 -6 14 14
25 53 22 58 -5 2 -10 0 -16 -5 -13 -4 3 -9 -9 -10 -25 -2 -30 -2 -30 13 -12 9
10 12 13 8 5 -5 -10 2 -12 34 -6 25 4 42 2 47 -4 3 -6 -1 -11 -10 -11 -9 0
-15 -6 -14 -12 6 -48 -17 -63 -47 -33 -9 8 -26 15 -38 15 -13 0 -31 10 -40 23
-9 12 -14 16 -10 8 4 -8 9 -27 10 -44 3 -25 2 -28 -11 -17 -13 11 -14 10 -9
-4 8 -20 -22 -34 -39 -17 -13 13 -41 15 -33 2 4 -5 -2 -7 -12 -4 -10 2 -29 -7
-45 -21 -29 -27 -43 -34 -31 -15 4 7 0 9 -13 5 -10 -3 -28 0 -39 8 -18 14 -18
15 -1 21 9 4 23 2 31 -4 10 -8 17 -6 31 9 10 11 23 20 29 20 6 0 4 -5 -4 -11
-21 -15 36 -2 74 17 16 8 37 14 48 14 10 0 18 3 18 8 -1 19 -19 32 -41 30 -36
-4 -39 34 -3 51 25 11 26 13 9 25 -10 7 -15 18 -11 24 3 6 -2 15 -11 21 -10 6
-13 11 -6 11 6 0 15 -4 18 -10 9 -15 28 -12 22 4 -4 9 3 16 16 20 19 5 20 8 7
17 -10 7 -11 9 -2 7 8 -2 13 -7 12 -12z m-192 -31 c-29 -27 -33 -35 -20 -38
12 -3 11 -5 -5 -6 -12 0 -23 -7 -26 -13 -7 -21 -42 5 -44 33 l-2 24 7 -24 c11
-37 27 -36 51 4 11 20 25 34 30 31 5 -3 14 1 21 9 7 8 15 15 19 15 3 0 -11
-16 -31 -35z m99 20 c0 -8 -4 -15 -9 -15 -10 0 -11 14 -1 23 9 10 10 9 10 -8z
m-127 1 c0 -2 -8 -10 -17 -17 -16 -13 -17 -12 -4 4 13 16 21 21 21 13z m284
-5 c4 -5 -3 -7 -14 -4 -23 6 -26 13 -6 13 8 0 17 -4 20 -9z m-166 -40 c11 -7
10 -9 -3 -14 -9 -4 -13 -3 -10 2 3 5 -3 12 -12 14 -13 3 -14 5 -3 6 8 0 21 -3
28 -8z m-48 -5 c0 -2 -8 -10 -17 -17 -16 -13 -17 -12 -4 4 13 16 21 21 21 13z
m20 -19 c0 -2 -10 -12 -22 -23 l-23 -19 19 23 c18 21 26 27 26 19z m30 -10
c-9 -7 -25 -25 -38 -41 -12 -16 -22 -25 -22 -20 0 12 56 74 67 74 4 0 1 -6 -7
-13z m200 -7 c-12 -8 -13 -11 -1 -19 8 -5 9 -11 3 -15 -11 -7 -25 21 -16 35 3
5 11 9 17 9 7 0 6 -4 -3 -10z m-653 -87 c-3 -10 -5 -2 -5 17 0 19 2 27 5 18 2
-10 2 -26 0 -35z m479 5 c4 -6 0 -14 -7 -19 -23 -15 -34 -10 -13 6 17 13 17
14 2 15 -9 0 -19 4 -22 9 -4 5 3 7 14 4 11 -3 23 -10 26 -15z m-190 0 c5 -7 3
-8 -6 -3 -10 6 -12 4 -7 -8 3 -9 2 -19 -3 -22 -11 -7 -14 28 -3 38 9 9 11 9
19 -5z m94 -19 c0 -16 -5 -20 -20 -16 -11 3 -20 0 -20 -6 0 -6 -3 -8 -6 -5 -8
9 19 48 33 48 7 0 13 -10 13 -21z m-753 -31 c29 -11 55 -23 58 -28 3 -5 -23 3
-57 16 -37 16 -75 24 -94 22 -18 -2 -31 -1 -28 3 2 4 -6 9 -18 12 -13 2 2 2
32 -1 30 -2 79 -13 107 -24z m968 1 c0 -7 -8 -15 -17 -17 -18 -3 -25 18 -11
32 10 10 28 1 28 -15z m-345 -4 c0 -8 -7 -15 -15 -15 -22 0 -18 -20 7 -41 l21
-19 -25 0 c-22 0 -26 5 -30 35 -2 19 1 40 6 45 15 15 36 12 36 -5z m440 11 c0
-2 -8 -10 -17 -17 -16 -13 -17 -12 -4 4 13 16 21 21 21 13z m-1243 -22 c-3 -3
-12 -4 -19 -1 -8 3 -5 6 6 6 11 1 17 -2 13 -5z m289 -1 c-3 -4 15 -30 41 -57
l48 -51 -52 49 c-45 43 -58 66 -36 66 4 0 3 -3 -1 -7z m539 -3 c3 -5 1 -10 -4
-10 -6 0 -11 5 -11 10 0 6 2 10 4 10 3 0 8 -4 11 -10z m-770 -9 c-16 -7 -14
-9 15 -14 18 -4 31 -10 28 -13 -3 -3 -21 -1 -39 3 -42 11 -51 33 -12 32 23 0
25 -2 8 -8z m266 -8 c13 -16 12 -17 -3 -4 -10 7 -18 15 -18 17 0 8 8 3 21 -13z
m863 9 c3 -5 -1 -9 -9 -9 -8 0 -12 4 -9 9 3 4 7 8 9 8 2 0 6 -4 9 -8z m-997
-11 c-1 -4 16 -25 38 -46 26 -25 35 -39 27 -42 -7 -3 -21 2 -31 11 -10 9 -24
16 -32 16 -10 0 -11 -2 -2 -8 7 -4 9 -12 5 -18 -8 -11 -53 -14 -46 -2 5 7 -53
26 -95 30 -47 5 -34 26 19 30 27 1 50 -1 50 -5 0 -10 43 -26 54 -19 5 3 -3 11
-18 19 -35 18 -33 40 4 41 16 0 29 -3 27 -7z m936 -26 c-9 -15 -11 -15 -23 0
-12 14 -12 18 1 25 19 12 33 -4 22 -25z m-873 10 c6 3 10 1 10 -4 0 -16 -23
-13 -46 5 -18 14 -18 15 4 4 12 -6 27 -8 32 -5z m833 -6 c4 -16 3 -18 -9 -8
-7 6 -11 15 -8 20 8 13 11 11 17 -12z m-1120 4 c-7 -2 -21 -2 -30 0 -10 3 -4
5 12 5 17 0 24 -2 18 -5z m897 -2 c0 -4 -11 -6 -25 -3 -14 2 -25 6 -25 8 0 2
11 4 25 4 14 0 25 -4 25 -9z m95 -10 c3 -5 2 -12 -3 -15 -5 -3 -9 1 -9 9 0 17
3 19 12 6z m53 -9 c2 -7 -6 -12 -17 -12 -21 0 -27 11 -14 24 9 9 26 2 31 -12z
m-118 -17 c0 -24 -19 -27 -44 -8 l-24 19 34 1 c22 1 34 -4 34 -12z m-490 -26
c15 -28 5 -23 -15 7 -9 15 -12 23 -6 20 6 -4 16 -16 21 -27z m340 11 c-6 -11
-13 -20 -16 -20 -2 0 0 9 6 20 6 11 13 20 16 20 2 0 0 -9 -6 -20z m54 -10
c-17 -32 -21 -35 -43 -21 -15 10 -13 11 56 50 1 1 -5 -12 -13 -29z m-789 -28
c-3 -3 -11 0 -18 7 -9 10 -8 11 6 5 10 -3 15 -9 12 -12z m73 1 c-10 -2 -26 -2
-35 0 -10 3 -2 5 17 5 19 0 27 -2 18 -5z m617 -3 c-3 -5 -12 -10 -18 -10 -7 0
-6 4 3 10 19 12 23 12 15 0z m-274 -53 c-11 -10 -12 -7 -6 12 5 15 4 21 -3 17
-6 -3 -14 -1 -18 5 -4 8 -3 9 4 5 7 -4 12 -1 13 6 0 7 5 3 11 -10 9 -17 8 -26
-1 -35z m241 0 c-18 -19 -39 -34 -48 -34 -10 0 -6 9 12 28 15 16 31 26 35 23
4 -2 10 0 14 6 3 5 9 10 13 10 3 0 -9 -15 -26 -33z m418 -127 c0 -5 -2 -10 -4
-10 -3 0 -8 5 -11 10 -3 6 -1 10 4 10 6 0 11 -4 11 -10z m144 0 c38 -14 32
-30 -11 -29 -56 2 -96 12 -101 27 -5 15 74 17 112 2z m127 -47 c13 -16 12 -17
-3 -4 -17 13 -22 21 -14 21 2 0 10 -8 17 -17z m-237 1 c35 -13 13 -24 -50 -24
-42 0 -63 -4 -59 -10 8 -12 -44 -2 -59 11 -22 20 123 40 168 23z m159 -8 c-3
-4 4 -5 16 -1 14 4 23 1 27 -9 3 -9 10 -13 15 -10 5 3 12 -2 15 -10 4 -12 11
-13 24 -6 14 8 18 6 16 -7 -2 -9 8 -27 22 -40 18 -17 21 -23 9 -23 -8 0 -18
-6 -21 -12 -4 -7 -4 -3 -2 9 2 12 -2 27 -10 34 -8 6 -11 16 -7 22 4 6 0 8 -8
5 -8 -3 -30 3 -49 13 -19 11 -28 19 -21 19 8 0 12 3 8 6 -3 3 -10 3 -16 -1
-15 -9 1 -37 47 -81 20 -20 30 -32 22 -28 -23 13 -50 15 -50 4 0 -6 10 -10 23
-10 15 0 18 -3 9 -9 -10 -6 -4 -16 22 -39 30 -26 33 -32 20 -43 -14 -11 -13
-15 8 -32 l23 -18 -24 11 c-13 7 -25 19 -28 28 -2 10 -18 24 -36 32 -17 8 -32
23 -33 33 -5 35 -44 64 -44 32 0 -15 127 -142 163 -162 12 -7 16 -12 8 -13
-11 0 -11 -3 0 -17 7 -10 -16 12 -50 50 -34 37 -69 67 -77 67 -17 0 -17 -5 -4
-30 19 -36 -29 -9 -67 37 -22 26 -42 42 -50 39 -8 -3 -11 -1 -8 5 4 5 -5 22
-19 36 -18 18 -23 29 -15 33 8 6 8 9 0 14 -22 14 -11 28 17 22 18 -5 22 -4 13
3 -19 13 -6 45 15 37 14 -5 15 -4 4 9 -11 13 -5 15 43 12 30 -1 53 -6 50 -11z
m-815 -66 c2 -5 8 -8 13 -5 5 4 6 -1 3 -9 -5 -12 -11 -13 -24 -6 -25 13 -60
13 -99 -1 -24 -9 -29 -14 -19 -20 13 -9 12 -9 -34 -13 -21 -2 -89 -77 -81 -89
3 -7 3 -9 -1 -5 -5 4 -17 -2 -29 -13 -26 -24 -37 -24 -37 -1 0 13 2 14 9 4 6
-10 16 -4 40 24 25 27 30 39 20 45 -7 4 -18 5 -24 1 -5 -3 -4 2 4 12 20 24
125 84 158 89 40 7 97 -1 101 -13z m-35 -27 c-7 -2 -19 -2 -25 0 -7 3 -2 5 12
5 14 0 19 -2 13 -5z m-46 -9 c-3 -3 -12 -4 -19 -1 -8 3 -5 6 6 6 11 1 17 -2
13 -5z m253 -14 c23 -18 26 -18 35 -1 9 15 14 12 45 -24 l34 -40 -37 34 c-20
19 -37 30 -37 24 0 -6 7 -16 16 -23 8 -8 20 -23 26 -34 5 -12 -4 -5 -20 14
-18 20 -31 29 -32 21 0 -11 -4 -10 -16 5 -14 18 -15 18 -9 -6 5 -20 3 -19 -16
10 -22 35 -39 28 -20 -9 16 -30 12 -40 -4 -11 -31 54 -12 76 35 40z m95 10 c3
-6 -1 -7 -9 -4 -18 7 -21 14 -7 14 6 0 13 -4 16 -10z m-245 -10 c0 -31 -68
-119 -92 -120 -13 0 -9 29 5 37 8 4 26 27 42 51 27 40 45 53 45 32z m72 -15
c13 -17 9 -90 -7 -111 -8 -10 -15 -27 -15 -37 0 -21 -77 -107 -96 -107 -23 0
-16 14 26 55 42 41 57 75 17 37 -13 -12 -29 -22 -35 -22 -20 0 -14 21 12 45
14 13 22 26 19 29 -4 3 -1 6 5 6 6 0 16 10 23 21 9 17 8 20 -3 14 -7 -3 -5 0
4 8 10 8 15 16 12 19 -3 3 -2 17 2 31 6 26 22 31 36 12z m843 -23 c-3 -3 -11
0 -18 7 -9 10 -8 11 6 5 10 -3 15 -9 12 -12z m40 -2 c10 -11 16 -20 13 -20 -3
0 -13 9 -23 20 -10 11 -16 20 -13 20 3 0 13 -9 23 -20z m-650 -21 c9 -17 15
-33 13 -35 -3 -2 -12 12 -21 31 -21 43 -13 47 8 4z m-138 -66 c-2 -16 -4 -5
-4 22 0 28 2 40 4 28 2 -13 2 -35 0 -50z m-32 10 c-8 -58 -35 -105 -79 -138
-40 -30 -56 -32 -49 -5 3 11 9 20 13 20 5 0 25 29 45 65 20 36 43 65 50 65 8
0 15 9 15 20 0 11 3 20 6 20 4 0 3 -21 -1 -47z m96 5 l16 22 11 -26 c7 -14 17
-22 22 -19 7 4 9 -3 5 -22 -5 -23 -4 -25 5 -13 10 12 11 10 6 -10 -3 -14 -6
-51 -6 -84 0 -52 -2 -57 -16 -45 -10 8 -14 23 -12 40 3 16 1 26 -4 23 -4 -3
-8 -12 -8 -20 0 -19 -19 -18 -26 1 -5 11 -15 3 -36 -29 -38 -59 -97 -81 -68
-26 11 20 10 21 -9 15 -23 -7 -26 1 -11 25 5 9 5 19 -2 27 -8 10 -7 12 6 7 13
-5 16 0 16 26 0 23 5 33 20 37 11 3 18 9 15 12 -2 4 3 8 11 8 8 0 13 -6 10
-13 -3 -8 0 -11 11 -7 8 3 19 0 25 -8 7 -10 8 -7 4 11 -3 14 -6 31 -6 38 0 6
-8 12 -17 13 -11 0 -13 3 -5 6 6 2 12 12 13 21 1 10 4 6 8 -8 l7 -24 15 22z
m46 0 c-3 -8 -6 -5 -6 6 -1 11 2 17 5 13 3 -3 4 -12 1 -19z m738 -28 c-3 -5
-12 -10 -18 -10 -7 0 -6 4 3 10 19 12 23 12 15 0z m-1165 -10 c0 -5 -2 -10 -4
-10 -3 0 -8 5 -11 10 -3 6 -1 10 4 10 6 0 11 -4 11 -10z m497 -42 c-3 -8 -6
-5 -6 6 -1 11 2 17 5 13 3 -3 4 -12 1 -19z m10 -50 c-3 -7 -5 -2 -5 12 0 14 2
19 5 13 2 -7 2 -19 0 -25z m-27 -34 c0 -8 -5 -12 -10 -9 -6 4 -8 11 -5 16 9
14 15 11 15 -7z m-583 -36 c-3 -7 -5 -2 -5 12 0 14 2 19 5 13 2 -7 2 -19 0
-25z m485 -1 c-5 -18 -7 -19 -10 -4 -2 10 -8 14 -15 10 -7 -4 -6 0 2 10 17 22
31 13 23 -16z m108 3 c0 -5 -2 -10 -4 -10 -3 0 -8 5 -11 10 -3 6 -1 10 4 10 6
0 11 -4 11 -10z m27 -27 c-3 -10 -5 -4 -5 12 0 17 2 24 5 18 2 -7 2 -21 0 -30z
m-17 -8 c0 -8 -2 -15 -4 -15 -2 0 -6 7 -10 15 -3 8 -1 15 4 15 6 0 10 -7 10
-15z m-453 -30 c0 -8 -4 -12 -9 -9 -5 3 -6 10 -3 15 9 13 12 11 12 -6z m273 2
c0 -2 -12 -14 -27 -28 l-28 -24 24 28 c23 25 31 32 31 24z m27 -29 c-3 -8 -6
-5 -6 6 -1 11 2 17 5 13 3 -3 4 -12 1 -19z"/>
<path d="M16890 4069 c0 -5 5 -7 10 -4 6 3 10 8 10 11 0 2 -4 4 -10 4 -5 0
-10 -5 -10 -11z"/>
<path d="M16354 3808 l-19 -23 23 19 c21 18 27 26 19 26 -2 0 -12 -10 -23 -22z"/>
<path d="M16930 3606 c0 -3 9 -10 20 -16 11 -6 20 -8 20 -6 0 3 -9 10 -20 16
-11 6 -20 8 -20 6z"/>
<path d="M16900 3586 c0 -3 13 -24 29 -46 18 -26 31 -35 34 -27 3 7 -10 28
-29 47 -19 18 -34 30 -34 26z"/>
<path d="M17020 3555 c0 -2 10 -10 23 -16 20 -11 21 -11 8 4 -13 16 -31 23
-31 12z"/>
<path d="M16452 3320 c0 -14 2 -19 5 -12 2 6 2 18 0 25 -3 6 -5 1 -5 -13z"/>
<path d="M4763 4329 c-97 -37 -139 -115 -130 -241 6 -92 38 -140 115 -176 50
-24 69 -27 162 -27 95 0 110 3 163 28 83 41 112 93 112 202 -1 167 -84 236
-284 234 -61 0 -101 -6 -138 -20z"/>
<path d="M15265 3356 c-42 -16 -85 -57 -85 -81 0 -28 40 -35 204 -35 150 0
171 -2 233 -25 50 -18 79 -36 112 -70 24 -25 45 -44 48 -41 12 11 -23 83 -60
123 -43 47 -128 100 -192 121 -65 21 -213 25 -260 8z"/>
<path d="M14430 3165 c-90 -29 -193 -103 -250 -179 -49 -65 -60 -95 -59 -159
1 -41 2 -46 8 -27 13 41 56 104 93 135 57 49 149 85 267 105 147 26 192 50
175 94 -20 53 -125 67 -234 31z"/>
<path d="M15289 2676 c-76 -26 -81 -29 -132 -70 -52 -41 -117 -130 -146 -201
-34 -80 -37 -247 -6 -309 29 -59 129 -161 176 -180 52 -21 60 -15 16 13 -86
53 -167 172 -182 267 -8 54 18 175 55 250 99 203 328 283 546 190 147 -61 246
-240 229 -410 -12 -125 -48 -208 -124 -289 -33 -35 -34 -37 -11 -29 36 13 117
117 141 182 12 30 24 83 26 117 5 56 8 63 34 73 16 7 34 18 40 26 9 12 5 14
-24 14 -47 0 -55 15 -17 35 33 17 40 35 13 35 -25 0 -79 46 -114 98 -48 71
-119 141 -169 167 -100 50 -243 59 -351 21z"/>
<path d="M14085 2657 c-17 -18 -43 -49 -59 -69 -16 -21 -35 -38 -43 -38 -10 0
-13 -6 -8 -17 11 -29 11 -35 -1 -40 -6 -2 -14 6 -17 18 -3 12 -12 19 -19 17
-23 -8 -20 -46 6 -90 23 -38 32 -43 27 -15 -1 5 4 5 10 2 8 -5 8 -10 0 -18 -6
-6 -11 -22 -11 -34 0 -13 -21 -65 -46 -116 -60 -121 -120 -270 -135 -332 -18
-76 -18 -77 -28 -70 -5 3 -13 30 -16 60 -4 30 -11 55 -16 55 -5 0 -6 -15 -3
-32 15 -95 28 -150 39 -165 11 -15 14 -7 20 52 8 78 58 241 102 331 48 96 93
178 110 196 9 10 18 41 21 70 2 29 8 58 12 63 4 6 15 35 25 65 10 30 29 74 42
98 29 50 28 51 -12 9z"/>
<path d="M14311 2610 c-40 -10 -82 -39 -97 -68 -6 -12 -14 -19 -17 -15 -4 3
-7 1 -7 -5 0 -5 -3 -17 -6 -26 -4 -10 -1 -16 9 -16 9 0 28 -11 43 -25 25 -23
28 -24 40 -7 8 9 4 -5 -7 -32 -37 -86 -9 -192 63 -236 18 -11 44 -20 58 -20
30 0 104 33 115 51 6 8 4 10 -6 5 -8 -4 -4 1 8 12 12 11 19 22 16 26 -4 3 -2
6 4 6 6 0 9 10 6 23 -4 17 -2 19 5 8 9 -12 12 -10 16 10 2 13 7 35 10 49 9 44
-39 190 -63 190 -5 0 -11 -6 -14 -14 -3 -8 -21 -22 -40 -31 -20 -9 -43 -25
-53 -36 -24 -26 -42 -24 -50 6 -9 37 3 85 27 111 36 38 13 51 -60 34z m-50
-117 c13 -16 12 -17 -3 -4 -17 13 -22 21 -14 21 2 0 10 -8 17 -17z m291 -153
c-6 -41 -12 -38 -12 6 0 19 4 33 8 30 5 -3 7 -19 4 -36z"/>
<path d="M15350 2477 c-14 -7 -37 -22 -50 -34 -23 -22 -23 -23 -3 -23 11 0 26
-7 33 -15 7 -8 18 -15 26 -15 21 0 25 -17 7 -31 -12 -10 -15 -11 -9 -1 10 17
-32 51 -65 52 -16 0 -29 -7 -33 -16 -4 -9 -5 -18 -4 -19 2 -1 16 -11 32 -23
15 -12 33 -19 39 -15 6 4 0 -9 -13 -27 -36 -51 -40 -143 -8 -189 12 -19 35
-43 49 -54 29 -21 103 -33 143 -23 32 8 84 52 107 91 13 21 19 25 19 13 0 -10
4 -18 9 -18 5 0 16 -7 25 -15 13 -13 17 -11 36 21 12 19 21 36 19 37 -2 1 -21
11 -42 21 -20 11 -35 21 -33 23 2 3 16 -3 30 -12 14 -9 30 -14 36 -10 15 9 12
80 -4 120 l-15 35 -43 -25 c-56 -32 -93 -32 -114 0 -19 29 -13 64 18 108 16
22 18 31 9 40 -17 17 -169 19 -201 4z m277 -299 c-3 -8 -6 -5 -6 6 -1 11 2 17
5 13 3 -3 4 -12 1 -19z"/>
<path d="M13190 2322 c-36 -31 -82 -70 -102 -85 -20 -15 -58 -54 -84 -87 -25
-33 -54 -62 -64 -65 -9 -3 -28 -29 -41 -58 -13 -28 -26 -54 -29 -57 -3 -3 -14
-18 -24 -34 -15 -24 -17 -39 -11 -80 9 -60 9 -85 0 -187 -10 -99 0 -110 90
-104 38 2 65 0 65 -5 0 -6 6 -10 13 -10 8 0 24 -11 36 -24 13 -13 31 -26 41
-29 27 -7 -45 85 -78 100 -15 7 -56 12 -90 13 l-64 0 7 78 c10 124 13 132 43
133 25 0 25 1 8 12 -10 7 -28 19 -39 28 l-21 17 24 53 c14 29 24 55 24 58 -1
3 7 23 17 43 14 27 23 36 36 31 9 -4 14 -2 10 3 -3 6 5 19 19 29 14 10 41 40
60 67 20 26 41 48 47 48 7 1 48 34 92 75 44 41 87 75 95 75 8 0 71 -58 141
-130 69 -71 132 -130 139 -130 8 0 -49 63 -125 140 -77 77 -146 140 -155 140
-8 0 -44 -26 -80 -58z"/>
<path d="M14013 2235 c0 -22 2 -30 4 -17 2 12 2 30 0 40 -3 9 -5 -1 -4 -23z"/>
<path d="M14026 2138 c36 -123 130 -210 247 -229 65 -11 187 -3 187 12 0 5 7
9 17 9 25 0 98 46 115 72 34 53 26 60 -17 16 -65 -68 -113 -89 -212 -96 -64
-4 -93 -1 -130 13 -95 35 -161 106 -189 202 -8 29 -19 53 -24 53 -5 0 -2 -24
6 -52z"/>
<path d="M13684 2103 c33 -8 45 -28 49 -79 l3 -49 2 48 c3 62 -11 87 -46 86
-20 -1 -22 -3 -8 -6z"/>
<path d="M14700 1759 c0 -24 23 -21 28 4 2 10 -3 17 -12 17 -10 0 -16 -9 -16
-21z"/>
<path d="M14830 1766 c0 -15 24 -28 34 -19 13 14 5 33 -14 33 -11 0 -20 -6
-20 -14z"/>
<path d="M14347 1584 c-11 -18 11 -210 28 -254 31 -74 122 -188 156 -194 19
-3 87 -46 73 -46 -6 0 -24 10 -40 22 -27 21 -28 21 -11 1 52 -60 227 -101 355
-83 136 19 288 128 351 253 38 76 64 168 51 181 -5 5 -51 15 -102 22 -82 11
-256 34 -483 65 -220 30 -371 43 -378 33z m189 -24 c82 -12 219 -30 304 -40
254 -32 442 -58 447 -63 7 -8 -22 -60 -45 -81 -18 -15 -33 -17 -109 -13 -115
6 -650 75 -685 88 -14 6 -35 20 -46 32 -21 23 -39 97 -24 97 5 0 76 -9 158
-20z m132 -367 c-10 -2 -28 -2 -40 0 -13 2 -5 4 17 4 22 1 32 -1 23 -4z m-98
-7 c0 -2 -8 -10 -17 -17 -16 -13 -17 -12 -4 4 13 16 21 21 21 13z m201 -23
c13 -16 12 -17 -3 -4 -10 7 -18 15 -18 17 0 8 8 3 21 -13z m117 0 c-10 -2 -26
-2 -35 0 -10 3 -2 5 17 5 19 0 27 -2 18 -5z m52 -13 c0 -5 -2 -10 -4 -10 -3 0
-8 5 -11 10 -3 6 -1 10 4 10 6 0 11 -4 11 -10z m-10 -23 c0 -2 -12 -14 -27
-28 l-28 -24 24 28 c23 25 31 32 31 24z m-247 -54 c-7 -2 -19 -2 -25 0 -7 3
-2 5 12 5 14 0 19 -2 13 -5z m125 -10 c-21 -2 -55 -2 -75 0 -21 2 -4 4 37 4
41 0 58 -2 38 -4z"/>
<path d="M13117 1434 c16 -22 62 -83 102 -136 66 -89 91 -114 91 -89 0 14
-107 161 -148 204 -54 56 -82 69 -45 21z"/>
<path d="M16715 1210 c-4 -6 -15 -14 -24 -18 -10 -4 -45 -39 -79 -79 -57 -66
-180 -160 -254 -194 -16 -7 -28 -16 -28 -20 0 -4 -14 -21 -31 -38 -17 -17 -29
-31 -26 -31 11 0 105 45 159 77 108 63 319 285 295 310 -3 2 -8 -1 -12 -7z"/>
<path d="M1719 1096 c-35 -12 -164 -95 -233 -150 -55 -45 -86 -102 -86 -162 0
-79 24 -107 117 -138 98 -33 138 -63 130 -97 -9 -36 -68 -61 -159 -67 -72 -4
-78 -3 -102 21 -15 15 -26 38 -26 54 -1 15 -2 120 -3 233 -2 205 -8 240 -41
262 -22 15 -73 8 -92 -13 -18 -20 -19 -40 -19 -298 0 -276 0 -276 25 -321 32
-57 77 -87 144 -95 54 -7 203 7 267 25 96 27 153 106 153 215 0 117 -65 196
-184 225 l-49 12 32 27 c18 15 48 38 67 51 70 47 138 110 150 140 10 25 10 34
-3 54 -20 30 -46 36 -88 22z"/>
<path d="M3019 1096 c-35 -12 -164 -95 -233 -150 -55 -45 -86 -102 -86 -162 0
-79 24 -107 117 -138 138 -46 171 -99 86 -140 -46 -23 -177 -34 -196 -17 -8 6
-17 40 -20 77 -9 91 -32 134 -87 162 -98 49 -233 18 -274 -63 -30 -58 -29
-192 1 -255 34 -70 111 -102 182 -76 l23 8 -18 -32 c-21 -35 -48 -52 -111 -69
-54 -15 -73 -34 -73 -74 1 -85 91 -112 188 -57 71 42 117 108 148 217 2 9 12
9 38 2 37 -10 162 1 235 21 98 26 155 105 155 215 0 117 -65 196 -184 225
l-49 12 32 27 c18 15 48 38 67 51 70 47 138 110 150 140 10 25 10 34 -3 54
-20 30 -46 36 -88 22z m-482 -526 c7 -14 13 -44 13 -67 l0 -42 -42 18 c-51 21
-68 56 -50 96 16 34 61 32 79 -5z"/>
<path d="M5630 1103 c-8 -3 -21 -12 -27 -21 -16 -20 -17 -84 -2 -99 9 -9 7
-11 -7 -7 -50 12 -93 -50 -73 -104 13 -34 26 -42 71 -42 26 0 41 6 51 20 l14
20 18 -20 c24 -26 86 -27 108 -2 17 19 23 78 9 99 -10 16 -61 34 -75 27 -8 -5
-8 -2 1 7 6 7 12 29 12 49 0 20 -6 44 -12 53 -14 18 -64 30 -88 20z m40 -153
c0 -5 -4 -10 -9 -10 -6 0 -13 5 -16 10 -3 6 1 10 9 10 9 0 16 -4 16 -10z"/>
<path d="M4714 1039 c-18 -20 -19 -40 -19 -298 0 -276 0 -276 25 -321 32 -57
77 -87 143 -95 68 -8 181 10 237 38 l45 23 43 -30 c36 -26 52 -31 100 -30 33
0 70 7 88 16 30 16 33 16 79 -8 76 -38 175 -27 203 23 9 15 13 14 42 -7 49
-35 125 -39 169 -8 l35 23 46 -23 c42 -21 53 -22 109 -13 97 16 160 56 195
125 27 51 30 66 30 160 1 120 -11 146 -70 146 -54 0 -74 -30 -74 -112 0 -89
-19 -134 -64 -153 -89 -37 -112 -13 -119 128 -5 109 -19 137 -69 137 -54 0
-68 -28 -68 -139 0 -112 -10 -151 -39 -151 -31 0 -36 17 -42 137 -4 90 -9 116
-24 133 -25 28 -75 26 -103 -3 -19 -21 -22 -34 -22 -119 0 -111 -10 -148 -40
-148 -30 0 -40 37 -40 144 0 79 -3 97 -21 120 -15 19 -30 26 -54 26 -64 0 -85
-46 -85 -185 0 -80 -9 -95 -57 -95 -47 0 -65 33 -70 128 -7 129 -19 152 -77
152 -53 0 -69 -27 -76 -130 -7 -96 -16 -115 -67 -137 -76 -31 -153 0 -153 64
-1 15 -2 120 -3 233 -2 205 -8 240 -41 262 -22 15 -73 8 -92 -13z"/>
<path d="M6362 1039 c-11 -11 -22 -37 -26 -57 -11 -70 -6 -565 7 -602 16 -46
56 -66 94 -48 52 25 53 37 51 374 -3 291 -4 313 -22 333 -25 28 -79 28 -104 0z"/>
<path d="M11274 1039 c-18 -20 -19 -40 -19 -298 0 -276 0 -276 25 -321 44 -78
122 -110 233 -95 170 24 236 94 245 262 7 136 -9 173 -72 173 -53 0 -69 -27
-76 -129 -5 -93 -14 -112 -61 -137 -64 -33 -139 1 -139 63 -1 15 -2 120 -3
233 -2 205 -8 240 -41 262 -22 15 -73 8 -92 -13z"/>
<path d="M4230 1000 c-45 -45 -13 -130 49 -130 46 0 75 30 74 76 -2 66 -77
100 -123 54z"/>
<path d="M9460 1000 c-45 -45 -13 -130 49 -130 46 0 75 30 74 76 -2 66 -77
100 -123 54z"/>
<path d="M14239 937 c-52 -66 -170 -175 -437 -405 l-62 -53 17 -27 17 -27 -22
22 c-23 23 -21 47 6 58 12 4 0 21 -53 75 -38 39 -66 70 -61 70 5 0 -7 17 -26
38 -18 20 -55 81 -82 135 -27 54 -58 102 -68 108 -26 14 -22 -2 12 -47 16 -21
30 -46 30 -55 0 -27 27 -83 49 -103 11 -10 19 -22 16 -26 -11 -18 131 -180
159 -181 20 0 20 -1 -3 -10 -21 -8 -23 -14 -18 -47 4 -25 16 -45 37 -62 16
-14 97 -89 178 -167 106 -103 154 -143 171 -143 l24 0 -24 28 -24 27 31 -27
c18 -17 42 -28 59 -28 27 0 27 1 12 18 -10 10 -17 22 -17 27 0 4 9 -4 21 -19
20 -25 24 -26 123 -26 l103 0 53 136 c33 85 70 159 96 195 41 56 105 109 131
109 7 0 24 -23 39 -51 52 -104 161 -184 285 -210 30 -6 90 -9 136 -6 67 4 97
11 156 39 39 20 83 45 97 57 31 27 23 25 -61 -17 -57 -29 -77 -33 -150 -35
-113 -3 -203 26 -283 89 -49 39 -64 59 -95 126 -37 82 -42 85 -93 63 -15 -6
-23 5 -48 61 -42 92 -127 220 -157 233 -45 21 -44 11 7 -51 51 -63 140 -223
140 -251 0 -9 -16 -25 -35 -37 -75 -46 -142 -149 -206 -317 -25 -65 -42 -76
-47 -30 -2 15 -7 27 -11 27 -4 0 -13 36 -20 80 -8 44 -17 80 -22 80 -5 0 -7
11 -3 25 3 14 2 25 -4 25 -5 0 -13 20 -16 45 -4 25 -11 45 -15 45 -5 0 -6 11
-3 25 3 16 0 25 -8 25 -8 0 -11 9 -8 25 3 14 2 25 -2 25 -5 0 -11 23 -15 50
-4 28 -11 50 -17 50 -6 0 -7 11 -4 25 4 14 2 25 -4 25 -5 0 -10 14 -10 31 0
30 0 30 -57 -31 -32 -34 -70 -83 -85 -108 -15 -26 -28 -42 -28 -37 0 6 9 25
20 43 11 17 16 32 13 32 -4 0 31 39 78 88 136 139 163 173 148 183 -21 13 -24
12 -60 -34z m-608 -274 c13 -16 12 -17 -3 -4 -10 7 -18 15 -18 17 0 8 8 3 21
-13z m359 -27 c0 -2 -8 -10 -17 -17 -16 -13 -17 -12 -4 4 13 16 21 21 21 13z
m47 -63 c-3 -10 -5 -4 -5 12 0 17 2 24 5 18 2 -7 2 -21 0 -30z m-97 23 c0 -2
-8 -10 -17 -17 -16 -13 -17 -12 -4 4 13 16 21 21 21 13z m-50 -40 c0 -2 -8
-10 -17 -17 -16 -13 -17 -12 -4 4 13 16 21 21 21 13z m147 -73 c-3 -10 -5 -4
-5 12 0 17 2 24 5 18 2 -7 2 -21 0 -30z m-102 -203 c71 -71 127 -130 125 -130
-3 0 -64 58 -135 130 -71 72 -127 130 -125 130 3 0 64 -58 135 -130z m223 27
c103 -93 220 -207 214 -207 -4 0 -56 48 -116 105 -79 76 -112 101 -119 92 -6
-9 -8 -9 -5 2 2 8 -9 28 -25 45 -15 17 -33 40 -38 51 -6 11 1 5 16 -13 15 -18
48 -52 73 -75z m-183 -7 c55 -55 97 -100 95 -100 -3 0 -50 45 -105 100 -55 55
-97 100 -95 100 3 0 50 -45 105 -100z m172 -72 c-3 -7 -5 -2 -5 12 0 14 2 19
5 13 2 -7 2 -19 0 -25z m240 -100 c-3 -8 -6 -5 -6 6 -1 11 2 17 5 13 3 -3 4
-12 1 -19z"/>
<path d="M3770 937 c-32 -16 -41 -88 -14 -118 23 -25 78 -25 104 1 l20 20 20
-20 c26 -26 81 -26 103 -2 19 21 22 73 7 102 -19 36 -97 34 -122 -4 -6 -8 -10
-8 -15 0 -10 14 -48 34 -65 34 -7 0 -24 -6 -38 -13z"/>
<path d="M4970 937 c-20 -10 -26 -21 -28 -56 -4 -54 17 -81 65 -81 43 0 73 30
73 73 0 38 -7 50 -37 66 -28 14 -42 14 -73 -2z"/>
<path d="M6045 925 c-48 -47 -20 -125 44 -125 45 0 59 9 71 44 14 43 -1 83
-35 96 -39 15 -54 12 -80 -15z"/>
<path d="M9813 924 c-21 -21 -24 -32 -19 -62 7 -43 28 -62 70 -62 36 0 48 7
64 35 6 11 12 15 12 8 0 -22 32 -43 66 -43 69 0 99 76 49 125 -13 14 -31 25
-39 25 -30 0 -67 -20 -76 -42 -6 -17 -9 -18 -9 -6 -1 22 -39 48 -69 48 -12 0
-34 -12 -49 -26z"/>
<path d="M4304 830 c-124 -26 -238 -196 -174 -260 36 -36 81 -27 144 31 62 56
87 60 118 19 30 -41 34 -94 9 -119 -19 -19 -32 -21 -156 -21 -133 0 -135 0
-151 26 -11 16 -19 53 -21 102 -7 129 -19 152 -77 152 -53 0 -69 -27 -76 -130
-10 -132 -22 -142 -203 -150 -106 -5 -132 -9 -155 -26 -67 -50 -63 -104 14
-192 l46 -52 -72 0 c-78 0 -116 14 -149 56 -28 35 -27 81 4 185 16 51 23 95
19 111 -11 52 -78 76 -116 41 -10 -9 -32 -61 -49 -116 -67 -213 -15 -354 153
-413 105 -37 270 -26 327 22 57 48 64 135 16 192 l-24 29 87 11 c51 7 105 21
132 35 l45 23 43 -30 44 -31 226 0 c212 0 230 1 274 22 34 15 53 32 64 56 20
42 12 72 -16 64 -37 -9 -50 14 -64 113 -8 52 -17 104 -21 115 -33 87 -152 153
-241 135z"/>
<path d="M9534 830 c-124 -26 -238 -196 -174 -260 36 -36 81 -27 144 31 62 56
87 60 118 19 30 -41 34 -94 9 -119 -19 -19 -32 -21 -155 -21 -104 0 -136 3
-146 14 -6 8 -16 47 -22 86 -19 129 -76 175 -213 175 -66 -1 -91 -6 -143 -30
-59 -26 -140 -100 -143 -129 0 -6 -6 14 -12 44 -14 62 -44 88 -90 76 -41 -10
-57 -52 -57 -151 0 -76 -2 -85 -19 -85 -29 0 -42 23 -53 100 -19 129 -76 175
-213 175 -66 -1 -91 -6 -143 -30 -59 -26 -140 -100 -143 -129 0 -6 -6 14 -12
44 -14 62 -44 88 -90 76 -41 -10 -57 -52 -57 -149 l0 -85 -100 -4 c-81 -3
-105 -8 -127 -24 -68 -50 -64 -104 13 -192 l46 -52 -72 0 c-78 0 -116 14 -149
56 -28 35 -27 81 4 185 16 51 23 95 19 111 -11 52 -78 76 -116 41 -10 -9 -32
-61 -49 -116 -67 -213 -15 -354 153 -413 105 -37 270 -26 327 22 58 48 64 135
15 194 l-26 30 36 0 c20 0 52 6 70 14 29 12 40 12 73 1 46 -17 278 -20 373 -5
36 6 78 20 93 31 l28 20 30 -25 c42 -36 76 -42 126 -24 37 13 49 14 81 2 45
-16 278 -18 372 -4 36 6 78 20 93 31 l28 20 30 -25 c42 -36 63 -39 208 -34
115 4 133 7 175 31 l46 26 25 -24 c33 -30 78 -38 145 -25 158 30 220 113 220
292 0 108 -17 138 -76 138 -51 0 -67 -28 -74 -130 -4 -51 -12 -96 -20 -105
-35 -43 -124 -61 -134 -27 -2 9 -7 46 -11 82 -8 84 -22 127 -52 168 -42 56
-142 96 -209 82z m-1103 -257 c13 -35 4 -69 -21 -83 -12 -6 -66 -9 -132 -8
l-113 3 38 42 c43 47 99 71 170 72 43 1 49 -2 58 -26z m730 0 c13 -35 4 -69
-21 -83 -12 -6 -66 -9 -132 -8 l-113 3 38 42 c43 47 99 71 170 72 43 1 49 -2
58 -26z"/>
<path d="M10712 819 c-96 -19 -151 -82 -177 -205 -32 -151 7 -204 150 -204 79
0 88 -7 55 -40 -30 -30 -63 -40 -130 -40 -69 0 -105 12 -142 47 -41 39 -44 77
-14 176 33 107 34 151 4 171 -61 43 -108 6 -145 -114 -30 -94 -36 -198 -14
-262 15 -45 87 -113 149 -141 59 -26 201 -35 280 -17 45 10 65 22 113 69 61
60 79 100 79 179 0 57 -22 97 -61 111 -18 6 -69 11 -115 11 l-83 0 10 29 c17
49 51 72 120 80 68 8 89 25 89 74 0 43 -16 65 -58 77 -42 11 -50 11 -110 -1z"/>
<path d="M11060 800 c-25 -25 -26 -71 -1 -101 23 -28 83 -32 108 -6 25 24 23
95 -2 113 -28 21 -82 17 -105 -6z"/>
<path d="M833 802 c-22 -14 -33 -59 -22 -91 25 -72 139 -53 139 23 0 49 -25
76 -68 76 -20 0 -42 -4 -49 -8z"/>
<path d="M1923 770 c-39 -23 -53 -48 -53 -93 0 -58 43 -83 104 -59 l39 15 28
-34 c15 -19 36 -49 46 -67 25 -45 11 -52 -103 -52 -112 0 -144 -18 -144 -79 0
-68 19 -76 184 -76 116 0 147 3 167 17 37 24 63 84 63 148 1 46 -5 66 -34 114
-43 73 -113 152 -151 171 -40 21 -108 19 -146 -5z"/>
<path d="M1032 753 c-31 -12 -37 -50 -42 -260 l-5 -213 -27 -26 c-52 -53 -193
-42 -223 16 -33 64 -9 210 34 210 79 0 113 87 56 140 -19 17 -36 23 -70 22
-125 -1 -196 -131 -182 -334 12 -174 91 -240 287 -241 76 -1 104 3 140 20 122
56 154 152 148 457 -3 173 -4 178 -27 197 -22 18 -61 23 -89 12z"/>
<path d="M6640 728 c-64 -33 -85 -80 -85 -188 0 -100 25 -164 76 -194 34 -20
91 -26 128 -12 l23 8 -18 -32 c-21 -35 -48 -52 -111 -69 -23 -6 -49 -18 -58
-27 -18 -18 -19 -72 -2 -95 76 -99 260 3 313 174 41 138 41 329 -1 393 -41 63
-181 84 -265 42z m147 -158 c7 -14 13 -44 13 -67 l0 -42 -42 18 c-51 21 -68
56 -50 96 16 34 61 32 79 -5z"/>
<path d="M16100 684 c0 -5 -55 -9 -123 -9 -105 0 -130 -3 -180 -24 -56 -23
-58 -23 -122 -7 -86 21 -105 21 -105 -4 0 -14 7 -20 23 -20 12 0 39 -5 60 -11
l38 -10 -41 -46 c-51 -58 -75 -134 -67 -215 6 -64 48 -164 91 -215 26 -31 32
-33 93 -33 51 0 64 3 60 14 -10 27 -176 272 -196 290 -12 11 -21 29 -21 40 0
17 2 18 10 6 10 -15 10 -15 10 25 0 3 8 14 18 24 9 11 22 26 28 33 24 28 71
61 124 86 45 22 73 27 150 30 108 5 175 -8 272 -48 129 -55 282 -176 395 -313
86 -103 103 -130 103 -162 0 -22 4 -25 30 -23 28 2 30 5 30 43 0 35 -9 51 -60
115 -158 195 -332 338 -495 407 -58 25 -125 39 -125 27z m421 -251 c13 -16 12
-17 -3 -4 -10 7 -18 15 -18 17 0 8 8 3 21 -13z m-810 -290 c13 -16 12 -17 -3
-4 -10 7 -18 15 -18 17 0 8 8 3 21 -13z"/>
<path d="M7133 620 c-35 -14 -43 -42 -43 -155 0 -155 -22 -194 -121 -220 -66
-17 -93 -46 -85 -90 13 -69 89 -94 171 -56 122 57 184 184 185 382 0 82 -14
123 -46 138 -29 13 -31 13 -61 1z"/>
<path d="M11093 620 c-35 -14 -43 -42 -43 -155 0 -155 -22 -194 -121 -220 -66
-17 -93 -46 -85 -90 13 -69 89 -94 171 -56 122 57 184 184 185 382 0 82 -14
123 -46 138 -29 13 -31 13 -61 1z"/>
<path d="M15670 367 c0 -2 36 -60 81 -127 44 -68 83 -129 86 -136 4 -11 53
-14 250 -14 153 0 242 4 238 10 -3 5 -12 7 -20 3 -8 -3 -15 -1 -15 5 0 6 -15
14 -32 17 -18 4 -40 13 -48 20 -8 6 -36 18 -63 25 -26 7 -50 16 -52 20 -3 5
-30 16 -60 25 -30 10 -55 23 -55 30 0 14 -31 25 -72 25 -14 0 -28 5 -30 10 -2
6 -21 13 -43 16 -70 9 -85 14 -85 27 0 7 -15 19 -32 27 -18 7 -36 15 -40 18
-5 2 -8 2 -8 -1z"/>
<path d="M11527 262 c-17 -19 -22 -67 -11 -96 9 -24 68 -40 96 -25 31 16 38
28 38 70 0 22 -7 42 -18 52 -25 23 -85 22 -105 -1z"/>
</g>
</svg>
